<?xml version="1.0" encoding="utf-8"?><svg viewBox="0 0 100 100" xmlns="http://www.w3.org/2000/svg" width="200px" height="200px" xmlns:xlink="http://www.w3.org/1999/xlink" style="width:100%;height:100%;background-size:initial;background-repeat-y:initial;background-repeat-x:initial;background-position-y:initial;background-position-x:initial;background-origin:initial;background-image:initial;background-color:rgb(255, 255, 255);background-clip:initial;background-attachment:initial;animation-play-state:paused" ><g class="ldl-scale" style="transform-origin:50% 50%;transform:rotate(0deg) scale(0.8, 0.8);animation-play-state:paused" ><path fill="#f5e169" d="M85.197 39.802l-21.59-3.137a2.395 2.395 0 0 1-1.804-1.31l-9.655-19.564c-.879-1.78-3.417-1.78-4.296 0l-9.655 19.564a2.394 2.394 0 0 1-1.804 1.31l-21.59 3.137c-1.965.286-2.749 2.7-1.328 4.086l15.623 15.228c.565.55.822 1.343.689 2.12l-3.688 21.503c-.336 1.957 1.718 3.449 3.476 2.525l19.311-10.152a2.394 2.394 0 0 1 2.229 0l19.311 10.152c1.757.924 3.811-.568 3.476-2.525l-3.688-21.503a2.394 2.394 0 0 1 .689-2.12l15.623-15.228c1.42-1.386.636-3.801-1.329-4.086z" style="fill:rgb(245, 225, 105);animation-play-state:paused" ></path>
<metadata xmlns:d="https://loading.io/stock/" style="animation-play-state:paused" ><d:name style="animation-play-state:paused" >star</d:name>


<d:tags style="animation-play-state:paused" >star,favorite,bookmark,asteriod,rank,review,tag</d:tags>


<d:license style="animation-play-state:paused" >by</d:license>


<d:slug style="animation-play-state:paused" >r9kehk</d:slug></metadata></g><!-- generated by https://loading.io/ --></svg>